<svg fill="none" height="18" viewBox="0 0 18 18" width="18" xmlns="http://www.w3.org/2000/svg"><path d="m8.72289 1.08374c.08206-.05461.17843-.08374.27699-.08374.09857 0 .19494.02913.277.08374 1.88782 1.27267 4.03982 2.10044 6.29392 2.42096.1191.01709.228.07654.3068.16747.0788.09092.1222.20721.1222.32752v4.49993c0 3.89098-2.307 6.72988-6.81992 8.46688-.11583.0447-.24416.0447-.35999 0-4.51193-1.737-6.81989-4.5769-6.81989-8.46688v-4.49993c.00002-.12046.04353-.23687.12253-.32782.079-.09094.18818-.1503.30746-.16717 2.25374-.32067 4.40536-1.14843 6.2929-2.42096zm-.124 1.26198c-1.71873 1.03998-3.61826 1.74633-5.59891 2.08196v4.07194c0 3.39198 1.96797 5.86288 5.9999 7.46288 4.03192-1.6 5.99992-4.0709 5.99992-7.46288v-4.07194c-1.981-.33551-3.8809-1.04186-5.59992-2.08196l-.4-.249-.39999.249z" fill="#000" stroke="#000" stroke-width=".25"/></svg>