<svg width="12" height="12" viewBox="0 0 12 12" fill="none" xmlns="http://www.w3.org/2000/svg">
<g clip-path="url(#clip0_3419_10607)">
<path d="M5.99997 9.13008C6.24482 9.13008 6.44331 8.93159 6.44331 8.68674C6.44331 8.4419 6.24482 8.24341 5.99997 8.24341C5.75513 8.24341 5.55664 8.4419 5.55664 8.68674C5.55664 8.93159 5.75513 9.13008 5.99997 9.13008Z" fill="#FE4F05"/>
<path d="M6.00033 7.53654C5.91192 7.53654 5.82714 7.50142 5.76462 7.43891C5.70211 7.3764 5.66699 7.29161 5.66699 7.20321V3.20321C5.66699 3.1148 5.70211 3.03002 5.76462 2.9675C5.82714 2.90499 5.91192 2.86987 6.00033 2.86987C6.08873 2.86987 6.17352 2.90499 6.23603 2.9675C6.29854 3.03002 6.33366 3.1148 6.33366 3.20321V7.20321C6.33366 7.29161 6.29854 7.3764 6.23603 7.43891C6.17352 7.50142 6.08873 7.53654 6.00033 7.53654Z" fill="#FE4F05"/>
<path d="M6.00033 11.3334C4.94549 11.3334 3.91435 11.0206 3.03729 10.4346C2.16022 9.84855 1.47664 9.0156 1.07297 8.04106C0.669303 7.06652 0.563685 5.99417 0.769473 4.9596C0.975261 3.92504 1.48321 2.97473 2.22909 2.22885C2.97497 1.48297 3.92528 0.975017 4.95985 0.769229C5.99441 0.563441 7.06677 0.669059 8.04131 1.07273C9.01584 1.47639 9.8488 2.15998 10.4348 3.03704C11.0209 3.9141 11.3337 4.94525 11.3337 6.00008C11.3337 7.41457 10.7718 8.77112 9.77156 9.77132C8.77137 10.7715 7.41481 11.3334 6.00033 11.3334ZM6.00033 1.33342C5.07735 1.33342 4.1751 1.60711 3.40767 2.11989C2.64024 2.63267 2.0421 3.36151 1.68889 4.21423C1.33568 5.06695 1.24327 6.00526 1.42333 6.9105C1.60339 7.81575 2.04785 8.64727 2.7005 9.29991C3.35314 9.95256 4.18466 10.397 5.08991 10.5771C5.99515 10.7571 6.93346 10.6647 7.78618 10.3115C8.63891 9.95831 9.36774 9.36017 9.88052 8.59274C10.3933 7.82531 10.667 6.92306 10.667 6.00008C10.667 4.76241 10.1753 3.57542 9.30016 2.70025C8.42499 1.82508 7.238 1.33342 6.00033 1.33342Z" fill="#FE4F05"/>
</g>
<defs>
<clipPath id="clip0_3419_10607">
<rect width="12" height="12" fill="white"/>
</clipPath>
</defs>
</svg>
