<svg width="18" height="18" viewBox="0 0 18 18" fill="none" xmlns="http://www.w3.org/2000/svg">
<path d="M8.99977 6.74992C8.40303 6.74992 7.83074 6.98698 7.40878 7.40893C6.98682 7.83089 6.74977 8.40319 6.74977 8.99992C6.74977 9.59666 6.98682 10.169 7.40878 10.5909C7.83074 11.0129 8.40303 11.2499 8.99977 11.2499C9.59651 11.2499 10.1688 11.0129 10.5908 10.5909C11.0127 10.169 11.2498 9.59666 11.2498 8.99992C11.2498 8.40319 11.0127 7.83089 10.5908 7.40893C10.1688 6.98698 9.59651 6.74992 8.99977 6.74992ZM7.87477 8.99992C7.87477 8.70155 7.9933 8.41541 8.20428 8.20443C8.41525 7.99345 8.7014 7.87492 8.99977 7.87492C9.29814 7.87492 9.58429 7.99345 9.79527 8.20443C10.0062 8.41541 10.1248 8.70155 10.1248 8.99992C10.1248 9.29829 10.0062 9.58444 9.79527 9.79542C9.58429 10.0064 9.29814 10.1249 8.99977 10.1249C8.7014 10.1249 8.41525 10.0064 8.20428 9.79542C7.9933 9.58444 7.87477 9.29829 7.87477 8.99992ZM11.945 4.94767C11.7375 4.98579 11.5234 4.94003 11.3496 4.82044C11.1758 4.70086 11.0566 4.51721 11.018 4.3098L10.7255 2.7168C10.7112 2.63922 10.6741 2.56765 10.619 2.51117C10.564 2.45469 10.4933 2.41584 10.4161 2.39955C9.48191 2.20145 8.51651 2.20145 7.58227 2.39955C7.50508 2.41584 7.43446 2.45469 7.37938 2.51117C7.3243 2.56765 7.28724 2.63922 7.2729 2.7168L6.98152 4.3098C6.96024 4.42326 6.91463 4.53075 6.84782 4.62489C6.781 4.71902 6.69458 4.79756 6.5945 4.85508C6.49442 4.91261 6.38306 4.94776 6.26809 4.95811C6.15312 4.96846 6.03727 4.95377 5.92852 4.91505L4.39965 4.37055C4.32546 4.34398 4.24507 4.33995 4.1686 4.35897C4.09213 4.37798 4.02299 4.4192 3.9699 4.47742C3.32912 5.18275 2.84522 6.01596 2.55015 6.92205C2.5258 6.99698 2.52435 7.07746 2.546 7.15322C2.56764 7.22897 2.61139 7.29654 2.67165 7.3473L3.9114 8.39467C3.99948 8.46902 4.07028 8.5617 4.11885 8.66624C4.16741 8.77077 4.19258 8.88465 4.19258 8.99992C4.19258 9.11519 4.16741 9.22907 4.11885 9.33361C4.07028 9.43815 3.99948 9.53083 3.9114 9.60517L2.67165 10.6525C2.61139 10.7033 2.56764 10.7709 2.546 10.8466C2.52435 10.9224 2.5258 11.0029 2.55015 11.0778C2.84543 11.984 3.32973 12.8173 3.97102 13.5224C4.02412 13.5806 4.09325 13.6219 4.16973 13.6409C4.2462 13.6599 4.32658 13.6559 4.40077 13.6293L5.93077 13.0848C6.0395 13.0457 6.15544 13.0307 6.27055 13.0409C6.38566 13.051 6.49717 13.0861 6.59736 13.1437C6.69754 13.2013 6.784 13.28 6.85072 13.3743C6.91745 13.4687 6.96285 13.5764 6.98377 13.69L7.27402 15.283C7.30327 15.4405 7.4259 15.5665 7.5834 15.5992C8.51801 15.7973 9.48378 15.7973 10.4184 15.5992C10.4953 15.5829 10.5656 15.5442 10.6205 15.4879C10.6754 15.4316 10.7123 15.3603 10.7266 15.283L11.0191 13.69C11.0404 13.5766 11.086 13.4691 11.1529 13.375C11.2197 13.2808 11.3061 13.2023 11.4062 13.1448C11.5062 13.0872 11.6176 13.0521 11.7326 13.0417C11.8476 13.0314 11.9634 13.0461 12.0721 13.0848L13.601 13.6293C13.7529 13.6833 13.9228 13.6405 14.0308 13.5224C14.6715 12.8171 15.1554 11.9839 15.4505 11.0778C15.4749 11.0029 15.4763 10.9224 15.4547 10.8466C15.433 10.7709 15.3893 10.7033 15.329 10.6525L14.0893 9.60517C14.001 9.53094 13.9301 9.4383 13.8814 9.33374C13.8327 9.22919 13.8075 9.11525 13.8075 8.99992C13.8075 8.88459 13.8327 8.77066 13.8814 8.6661C13.9301 8.56155 14.001 8.46891 14.0893 8.39467L15.329 7.3473C15.3893 7.29654 15.433 7.22897 15.4547 7.15322C15.4763 7.07746 15.4749 6.99698 15.4505 6.92205C15.1549 6.01569 14.6702 5.18244 14.0285 4.47742C13.9754 4.4192 13.9063 4.37798 13.8298 4.35897C13.7533 4.33995 13.673 4.34398 13.5988 4.37055L12.0688 4.91505C12.0281 4.92966 11.9864 4.94094 11.9439 4.9488L11.945 4.94767ZM4.49752 5.60017L5.55165 5.9748C5.81394 6.06818 6.09337 6.10351 6.37065 6.07835C6.64793 6.0532 6.91645 5.96816 7.15765 5.8291C7.39886 5.69005 7.60701 5.50029 7.76772 5.27295C7.92844 5.0456 8.03789 4.78607 8.08852 4.5123L8.28765 3.42105C8.76019 3.36205 9.23823 3.36205 9.71077 3.42105L9.91102 4.5123C9.9613 4.78626 10.0705 5.04602 10.2312 5.27358C10.3918 5.50113 10.6 5.69105 10.8413 5.83016C11.0826 5.96928 11.3513 6.05426 11.6287 6.07924C11.9061 6.10421 12.1856 6.06858 12.4479 5.9748L13.4998 5.59905C13.7866 5.9748 14.0251 6.3843 14.2085 6.81855L13.3603 7.53517C13.1471 7.71512 12.9758 7.93942 12.8583 8.19241C12.7408 8.4454 12.68 8.72098 12.68 8.99992C12.68 9.27887 12.7408 9.55445 12.8583 9.80744C12.9758 10.0604 13.1471 10.2847 13.3603 10.4647L14.2096 11.1813C14.0256 11.616 13.7875 12.0257 13.5009 12.4008L12.4468 12.025C12.1845 11.9317 11.905 11.8963 11.6278 11.9215C11.3505 11.9466 11.082 12.0317 10.8408 12.1707C10.5996 12.3098 10.3914 12.4996 10.2307 12.7269C10.07 12.9542 9.96053 13.2138 9.9099 13.4875L9.70965 14.5788C9.23711 14.6379 8.75906 14.6379 8.28652 14.5788L8.0874 13.4875C8.03712 13.2136 7.92789 12.9538 7.76726 12.7263C7.60663 12.4987 7.39845 12.3088 7.15714 12.1697C6.91583 12.0306 6.64716 11.9456 6.36974 11.9206C6.09233 11.8956 5.8128 11.9313 5.55052 12.025L4.49977 12.4008C4.21316 12.0257 3.97503 11.616 3.79102 11.1813L4.63927 10.4635C4.85221 10.2836 5.02334 10.0594 5.14072 9.80648C5.25811 9.5536 5.31892 9.27816 5.31892 8.99936C5.31892 8.72056 5.25811 8.44512 5.14072 8.19224C5.02334 7.93936 4.85221 7.71513 4.63927 7.53517L3.7899 6.81855C3.97468 6.38424 4.21275 5.97459 4.49865 5.59905L4.49752 5.60017Z" fill="black"/>
</svg>
