<svg width="16" height="16" viewBox="0 0 16 16" fill="none" xmlns="http://www.w3.org/2000/svg">
<path d="M9.09395 2.6399C8.98543 2.44585 8.82713 2.28426 8.63535 2.17178C8.44358 2.0593 8.22527 2 8.00295 2C7.78062 2 7.56231 2.0593 7.37054 2.17178C7.17876 2.28426 7.02046 2.44585 6.91195 2.6399L2.15895 11.1419C2.05263 11.3321 1.99786 11.5467 2.00006 11.7646C2.00227 11.9824 2.06139 12.1959 2.17154 12.3839C2.28169 12.5719 2.43907 12.7278 2.62805 12.8362C2.81704 12.9446 3.03108 13.0017 3.24895 13.0019H12.7529C12.9709 13.0019 13.1851 12.9449 13.3742 12.8366C13.5633 12.7282 13.7208 12.5723 13.8311 12.3843C13.9414 12.1963 14.0006 11.9828 14.0028 11.7648C14.0051 11.5469 13.9503 11.3321 13.8439 11.1419L9.09395 2.6399ZM8.75195 10.2519C8.75195 10.4508 8.67293 10.6416 8.53228 10.7822C8.39162 10.9229 8.20086 11.0019 8.00195 11.0019C7.80303 11.0019 7.61227 10.9229 7.47162 10.7822C7.33096 10.6416 7.25195 10.4508 7.25195 10.2519C7.25195 10.053 7.33096 9.86223 7.47162 9.72157C7.61227 9.58092 7.80303 9.5019 8.00195 9.5019C8.20086 9.5019 8.39162 9.58092 8.53228 9.72157C8.67293 9.86223 8.75195 10.053 8.75195 10.2519ZM7.50195 8.0019V5.5019C7.50195 5.36929 7.55462 5.24212 7.64839 5.14835C7.74216 5.05458 7.86934 5.0019 8.00195 5.0019C8.13455 5.0019 8.26173 5.05458 8.3555 5.14835C8.44927 5.24212 8.50195 5.36929 8.50195 5.5019V8.0019C8.50195 8.13451 8.44927 8.26169 8.3555 8.35546C8.26173 8.44922 8.13455 8.5019 8.00195 8.5019C7.86934 8.5019 7.74216 8.44922 7.64839 8.35546C7.55462 8.26169 7.50195 8.13451 7.50195 8.0019Z" fill="#FE4F05"/>
</svg>
