<svg width="20" height="20" viewBox="0 0 20 20" fill="none" xmlns="http://www.w3.org/2000/svg">
<path d="M3.26004 11.602C3.94204 8.327 6.79304 6 10 6C13.206 6 16.057 8.327 16.74 11.602C16.7671 11.732 16.8447 11.8458 16.9557 11.9186C17.0667 11.9914 17.2021 12.0171 17.332 11.99C17.462 11.9629 17.5759 11.8854 17.6486 11.7744C17.7214 11.6633 17.7471 11.528 17.72 11.398C16.943 7.673 13.693 5 10 5C6.30704 5 3.05704 7.673 2.28004 11.398C2.25298 11.528 2.27867 11.6633 2.35143 11.7744C2.42419 11.8854 2.53808 11.9629 2.66804 11.99C2.79799 12.0171 2.93337 11.9914 3.04439 11.9186C3.15542 11.8458 3.23298 11.732 3.26004 11.602ZM9.99004 8C10.9183 8 11.8085 8.36875 12.4649 9.02513C13.1213 9.6815 13.49 10.5717 13.49 11.5C13.49 12.4283 13.1213 13.3185 12.4649 13.9749C11.8085 14.6313 10.9183 15 9.99004 15C9.06178 15 8.17154 14.6313 7.51516 13.9749C6.85879 13.3185 6.49004 12.4283 6.49004 11.5C6.49004 10.5717 6.85879 9.6815 7.51516 9.02513C8.17154 8.36875 9.06178 8 9.99004 8Z" fill="#B5B5B5"/>
</svg>
