<svg width="37" height="36" viewBox="0 0 37 36" fill="none" xmlns="http://www.w3.org/2000/svg">
<path fill-rule="evenodd" clip-rule="evenodd" d="M7.27212 8.73712C6.68164 8.15607 6.67401 7.20635 7.25506 6.61587C7.83612 6.02539 8.78584 6.01776 9.37631 6.59881L18.8247 15.8964L28.2728 6.59906C28.8633 6.018 29.813 6.02564 30.394 6.61612C30.9751 7.2066 30.9675 8.15631 30.377 8.73737L20.9633 18.0009L30.3765 27.2639C30.967 27.845 30.9747 28.7947 30.3936 29.3852C29.8125 29.9757 28.8628 29.9833 28.2723 29.4023L18.8247 20.1053L9.37676 29.4025C8.78628 29.9836 7.83656 29.9759 7.25551 29.3854C6.67445 28.795 6.68209 27.8452 7.27257 27.2642L16.6861 18.0009L7.27212 8.73712Z" fill="#FE4F05"/>
</svg>
