<svg width="34" height="32" viewBox="0 0 34 32" fill="none" xmlns="http://www.w3.org/2000/svg">
<path d="M22.5736 0.822778L18.4271 3.23345C18.2879 3.31421 18.2031 3.46354 18.2031 3.62354V8.44335C18.2031 8.60487 18.2879 8.75268 18.4271 8.83345L22.5736 11.2441C22.7129 11.3249 22.8824 11.3249 23.0217 11.2441L27.1696 8.83345C27.309 8.75268 27.3938 8.60335 27.3938 8.44335V3.62354C27.3938 3.46201 27.309 3.31421 27.1696 3.23345L23.0217 0.822778C22.8824 0.742017 22.7129 0.742017 22.5736 0.822778Z" fill="url(#paint0_linear_3450_6743)"/>
<path d="M28.2885 10.7881L24.142 13.1988C24.0027 13.2795 23.918 13.4288 23.918 13.5888V18.4087C23.918 18.5702 24.0027 18.718 24.142 18.7988L28.2885 21.2094C28.4277 21.2902 28.5973 21.2902 28.7365 21.2094L32.8845 18.7988C33.0237 18.718 33.1085 18.5687 33.1085 18.4087V13.5888C33.1085 13.4274 33.0237 13.2795 32.8845 13.1988L28.7365 10.7881C28.5973 10.7074 28.4277 10.7074 28.2885 10.7881Z" fill="url(#paint1_linear_3450_6743)"/>
<path d="M11.1419 0.822778L6.99554 3.23345C6.85626 3.31421 6.77148 3.46354 6.77148 3.62354V8.44335C6.77148 8.60487 6.85626 8.75268 6.99554 8.83345L11.1419 11.2441C11.2813 11.3249 11.4508 11.3249 11.5901 11.2441L15.7381 8.83345C15.8773 8.75268 15.9621 8.60335 15.9621 8.44335V3.62354C15.9621 3.46201 15.8773 3.31421 15.7381 3.23345L11.5901 0.822778C11.4508 0.742017 11.2813 0.742017 11.1419 0.822778Z" fill="url(#paint2_linear_3450_6743)"/>
<path d="M22.5736 20.7549L18.4271 23.1656C18.2879 23.2463 18.2031 23.3956 18.2031 23.5556V28.3755C18.2031 28.537 18.2879 28.6848 18.4271 28.7656L22.5736 31.1762C22.7129 31.257 22.8824 31.257 23.0217 31.1762L27.1696 28.7656C27.309 28.6848 27.3938 28.5355 27.3938 28.3755V23.5556C27.3938 23.3941 27.309 23.2463 27.1696 23.1656L23.0217 20.7549C22.8824 20.6741 22.7129 20.6741 22.5736 20.7549Z" fill="url(#paint3_linear_3450_6743)"/>
<path d="M11.1419 20.7549L6.99554 23.1656C6.85626 23.2463 6.77148 23.3956 6.77148 23.5556V28.3755C6.77148 28.537 6.85626 28.6848 6.99554 28.7656L11.1419 31.1762C11.2813 31.257 11.4508 31.257 11.5901 31.1762L15.7381 28.7656C15.8773 28.6848 15.9621 28.5355 15.9621 28.3755V23.5556C15.9621 23.3941 15.8773 23.2463 15.7381 23.1656L11.5901 20.7549C11.4508 20.6741 11.2813 20.6741 11.1419 20.7549Z" fill="url(#paint4_linear_3450_6743)"/>
<path d="M5.44276 10.7881L1.29632 13.1988C1.15704 13.2795 1.07227 13.4288 1.07227 13.5888V18.4087C1.07227 18.5702 1.15704 18.718 1.29632 18.7988L5.44276 21.2094C5.58203 21.2902 5.75158 21.2902 5.89086 21.2094L10.0388 18.7988C10.1781 18.718 10.2629 18.5687 10.2629 18.4087V13.5888C10.2629 13.4274 10.1781 13.2795 10.0388 13.1988L5.89086 10.7881C5.75158 10.7074 5.58203 10.7074 5.44276 10.7881Z" fill="url(#paint5_linear_3450_6743)"/>
<defs>
<linearGradient id="paint0_linear_3450_6743" x1="12.9183" y1="-4.21188" x2="35.2917" y2="18.686" gradientUnits="userSpaceOnUse">
<stop stop-color="#00CE7E"/>
<stop offset="1" stop-color="#FCE200"/>
</linearGradient>
<linearGradient id="paint1_linear_3450_6743" x1="10.9095" y1="-2.25418" x2="33.2828" y2="20.6422" gradientUnits="userSpaceOnUse">
<stop stop-color="#00CE7E"/>
<stop offset="1" stop-color="#FCE200"/>
</linearGradient>
<linearGradient id="paint2_linear_3450_6743" x1="7.03186" y1="1.53896" x2="29.4068" y2="24.4369" gradientUnits="userSpaceOnUse">
<stop stop-color="#00CE7E"/>
<stop offset="1" stop-color="#FCE200"/>
</linearGradient>
<linearGradient id="paint3_linear_3450_6743" x1="3.02072" y1="5.45888" x2="25.3941" y2="28.3568" gradientUnits="userSpaceOnUse">
<stop stop-color="#00CE7E"/>
<stop offset="1" stop-color="#FCE200"/>
</linearGradient>
<linearGradient id="paint4_linear_3450_6743" x1="-2.86569" y1="11.2097" x2="19.5092" y2="34.1077" gradientUnits="userSpaceOnUse">
<stop stop-color="#00CE7E"/>
<stop offset="1" stop-color="#FCE200"/>
</linearGradient>
<linearGradient id="paint5_linear_3450_6743" x1="-0.85032" y1="9.24144" x2="21.5231" y2="32.1394" gradientUnits="userSpaceOnUse">
<stop stop-color="#00CE7E"/>
<stop offset="1" stop-color="#FCE200"/>
</linearGradient>
</defs>
</svg>
