<svg width="34" height="32" viewBox="0 0 34 32" fill="none" xmlns="http://www.w3.org/2000/svg">
<g clip-path="url(#clip0_283_27555)">
<path d="M22.9215 0.0635368L18.66 2.59222C18.5168 2.67693 18.4297 2.83358 18.4297 3.00141V8.05718C18.4297 8.22661 18.5168 8.38166 18.66 8.46637L22.9215 10.9951C23.0647 11.0798 23.239 11.0798 23.3821 10.9951L27.6452 8.46637C27.7883 8.38166 27.8754 8.22502 27.8754 8.05718V3.00141C27.8754 2.83198 27.7883 2.67693 27.6452 2.59222L23.3821 0.0635368C23.239 -0.0211789 23.0647 -0.0211789 22.9215 0.0635368Z" fill="url(#paint0_linear_283_27555)"/>
<path d="M28.7965 10.5171L24.5349 13.0458C24.3918 13.1305 24.3047 13.2872 24.3047 13.455V18.5108C24.3047 18.6802 24.3918 18.8353 24.5349 18.92L28.7965 21.4486C28.9396 21.5333 29.1139 21.5333 29.257 21.4486L33.5201 18.92C33.6633 18.8353 33.7504 18.6786 33.7504 18.5108V13.455C33.7504 13.2856 33.6633 13.1305 33.5201 13.0458L29.257 10.5171C29.1139 10.4324 28.9396 10.4324 28.7965 10.5171Z" fill="url(#paint1_linear_283_27555)"/>
<path d="M11.1754 0.0635368L6.91386 2.59222C6.77072 2.67693 6.68359 2.83358 6.68359 3.00141V8.05718C6.68359 8.22661 6.77072 8.38166 6.91386 8.46637L11.1754 10.9951C11.3186 11.0798 11.4928 11.0798 11.636 10.9951L15.899 8.46637C16.0422 8.38166 16.1294 8.22502 16.1294 8.05718V3.00141C16.1294 2.83198 16.0422 2.67693 15.899 2.59222L11.636 0.0635368C11.4928 -0.0211789 11.3186 -0.0211789 11.1754 0.0635368Z" fill="url(#paint2_linear_283_27555)"/>
<path d="M22.9215 20.9722L18.66 23.5009C18.5168 23.5856 18.4297 23.7422 18.4297 23.9101V28.9658C18.4297 29.1353 18.5168 29.2903 18.66 29.375L22.9215 31.9038C23.0647 31.9885 23.239 31.9885 23.3821 31.9038L27.6452 29.375C27.7883 29.2903 27.8754 29.1337 27.8754 28.9658V23.9101C27.8754 23.7407 27.7883 23.5856 27.6452 23.5009L23.3821 20.9722C23.239 20.8875 23.0647 20.8875 22.9215 20.9722Z" fill="url(#paint3_linear_283_27555)"/>
<path d="M11.1754 20.9722L6.91386 23.5009C6.77072 23.5856 6.68359 23.7422 6.68359 23.9101V28.9658C6.68359 29.1353 6.77072 29.2903 6.91386 29.375L11.1754 31.9038C11.3186 31.9885 11.4928 31.9885 11.636 31.9038L15.899 29.375C16.0422 29.2903 16.1294 29.1337 16.1294 28.9658V23.9101C16.1294 23.7407 16.0422 23.5856 15.899 23.5009L11.636 20.9722C11.4928 20.8875 11.3186 20.8875 11.1754 20.9722Z" fill="url(#paint4_linear_283_27555)"/>
<path d="M5.31604 10.5171L1.05449 13.0458C0.911348 13.1305 0.824219 13.2872 0.824219 13.455V18.5108C0.824219 18.6802 0.911348 18.8353 1.05449 18.92L5.31604 21.4486C5.45918 21.5333 5.63344 21.5333 5.77658 21.4486L10.0397 18.92C10.1828 18.8353 10.27 18.6786 10.27 18.5108V13.455C10.27 13.2856 10.1828 13.1305 10.0397 13.0458L5.77658 10.5171C5.63344 10.4324 5.45918 10.4324 5.31604 10.5171Z" fill="url(#paint5_linear_283_27555)"/>
</g>
<defs>
<linearGradient id="paint0_linear_283_27555" x1="12.9982" y1="-5.21761" x2="36.4731" y2="18.3223" gradientUnits="userSpaceOnUse">
<stop stop-color="#00CE7E"/>
<stop offset="1" stop-color="#FCE200"/>
</linearGradient>
<linearGradient id="paint1_linear_283_27555" x1="10.935" y1="-3.16364" x2="34.4099" y2="20.3746" gradientUnits="userSpaceOnUse">
<stop stop-color="#00CE7E"/>
<stop offset="1" stop-color="#FCE200"/>
</linearGradient>
<linearGradient id="paint2_linear_283_27555" x1="6.95121" y1="0.814788" x2="30.4277" y2="24.3546" gradientUnits="userSpaceOnUse">
<stop stop-color="#00CE7E"/>
<stop offset="1" stop-color="#FCE200"/>
</linearGradient>
<linearGradient id="paint3_linear_283_27555" x1="2.82581" y1="4.92741" x2="26.3007" y2="28.4672" gradientUnits="userSpaceOnUse">
<stop stop-color="#00CE7E"/>
<stop offset="1" stop-color="#FCE200"/>
</linearGradient>
<linearGradient id="paint4_linear_283_27555" x1="-3.22112" y1="10.9598" x2="20.2554" y2="34.4996" gradientUnits="userSpaceOnUse">
<stop stop-color="#00CE7E"/>
<stop offset="1" stop-color="#FCE200"/>
</linearGradient>
<linearGradient id="paint5_linear_283_27555" x1="-1.15174" y1="8.89477" x2="22.3231" y2="32.4346" gradientUnits="userSpaceOnUse">
<stop stop-color="#00CE7E"/>
<stop offset="1" stop-color="#FCE200"/>
</linearGradient>
<clipPath id="clip0_283_27555">
<rect width="33" height="32" fill="white" transform="translate(0.824219)"/>
</clipPath>
</defs>
</svg>
