<svg width="25" height="24" viewBox="0 0 25 24" fill="none" xmlns="http://www.w3.org/2000/svg">
<path fill-rule="evenodd" clip-rule="evenodd" d="M24.3769 2.56916C24.9674 1.9881 24.975 1.03838 24.394 0.447904C23.8129 -0.142574 22.8632 -0.150212 22.2727 0.430844L12.8245 9.72828L3.37631 0.430844C2.78584 -0.150212 1.83612 -0.142574 1.25506 0.447904C0.674007 1.03838 0.681644 1.9881 1.27212 2.56916L10.6859 11.8327L1.2725 21.096C0.68202 21.677 0.674381 22.6267 1.25544 23.2172C1.83649 23.8077 2.78621 23.8153 3.37669 23.2343L12.8245 13.9372L22.2723 23.2343C22.8628 23.8153 23.8125 23.8077 24.3936 23.2172C24.9747 22.6267 24.967 21.677 24.3765 21.096L14.9631 11.8327L24.3769 2.56916Z" fill="#B5B5B5"/>
</svg>
