<svg width="81" height="80" viewBox="0 0 81 80" fill="none" xmlns="http://www.w3.org/2000/svg">
<mask id="mask0_615_135630" style="mask-type:alpha" maskUnits="userSpaceOnUse" x="11" y="9" width="48" height="58">
<path d="M58.3945 62.6668V32.6923L35.3976 10.0239H15.2755C13.3425 10.0239 11.7755 11.5909 11.7755 13.5239V62.6668C11.7755 64.5998 13.3425 66.1668 15.2755 66.1668H54.8945C56.8275 66.1668 58.3945 64.5998 58.3945 62.6668Z" fill="#F8FEF8" stroke="#051C2C"/>
</mask>
<g mask="url(#mask0_615_135630)">
<path d="M58.3945 62.6668V32.6923L35.3976 10.0239H15.2755C13.3425 10.0239 11.7755 11.5909 11.7755 13.5239V62.6668C11.7755 64.5998 13.3425 66.1668 15.2755 66.1668H54.8945C56.8275 66.1668 58.3945 64.5998 58.3945 62.6668Z" fill="#F8FEF8" stroke="#051C2C"/>
<path d="M64.1328 39.0343C64.1328 38.4989 63.9181 37.9858 63.5368 37.61L41.4249 15.8139C41.0507 15.4451 40.5463 15.2383 40.0209 15.2383H18.5138C17.4092 15.2383 16.5138 16.1337 16.5138 17.2383V70.3811C16.5138 71.4857 17.4092 72.3811 18.5138 72.3811H62.1328C63.2374 72.3811 64.1328 71.4857 64.1328 70.3811V39.0343Z" fill="url(#paint0_linear_615_135630)"/>
<path d="M58.3945 62.6668V32.6923L35.3976 10.0239H15.2755C13.3425 10.0239 11.7755 11.5909 11.7755 13.5239V62.6668C11.7755 64.5998 13.3425 66.1668 15.2755 66.1668H54.8945C56.8275 66.1668 58.3945 64.5998 58.3945 62.6668Z" stroke="#051C2C"/>
<path d="M36.1207 10.731V28.7977C36.1207 30.7307 37.6877 32.2977 39.6207 32.2977H57.6874L36.1207 10.731Z" fill="#F8FEF8" stroke="#051C2C"/>
</g>
<path d="M19.3711 24.7622H32.7044" stroke="black" stroke-miterlimit="10"/>
<path d="M19.3711 47.6191H34.6092" stroke="black" stroke-miterlimit="10"/>
<path d="M19.3711 55.2383H35.5616" stroke="black" stroke-miterlimit="10"/>
<path d="M19.3711 32.3809H30.7997" stroke="black" stroke-miterlimit="10"/>
<path d="M19.3711 40H42.2282" stroke="black" stroke-miterlimit="10"/>
<path d="M66.6917 47.2346L67.9433 47.5123V50.814C67.9437 54.2885 67.0503 57.7029 65.3516 60.7187C63.653 63.7345 61.208 66.247 58.259 68.0074L54.1338 70.476L50.0085 68.0074C47.0595 66.247 44.6145 63.7345 42.9159 60.7187C41.2172 57.7029 40.3238 54.2885 40.3242 50.814V47.5123L41.5758 47.2346C46.2053 46.2102 54.2127 40.9521 54.2127 40.9521C54.2127 40.9521 62.0622 46.2102 66.6917 47.2346Z" fill="#F8FEF8" stroke="#051C2C"/>
<path d="M50.8008 56.1677L53.6732 59.0478L59.3722 53.3335" stroke="black" stroke-miterlimit="10"/>
<defs>
<linearGradient id="paint0_linear_615_135630" x1="74.0943" y1="7.18327" x2="-47.1786" y2="125.827" gradientUnits="userSpaceOnUse">
<stop stop-color="#00CE7E"/>
<stop offset="1" stop-color="#FCE200"/>
</linearGradient>
</defs>
</svg>
