<svg width="20" height="20" viewBox="0 0 20 20" fill="none" xmlns="http://www.w3.org/2000/svg">
<path d="M2.85366 2.1459C2.80717 2.09941 2.75198 2.06254 2.69124 2.03738C2.6305 2.01222 2.5654 1.99927 2.49966 1.99927C2.43391 1.99927 2.36881 2.01222 2.30807 2.03738C2.24733 2.06254 2.19214 2.09941 2.14565 2.1459C2.09917 2.19239 2.06229 2.24758 2.03713 2.30832C2.01197 2.36906 1.99902 2.43416 1.99902 2.4999C1.99902 2.56564 2.01197 2.63074 2.03713 2.69148C2.06229 2.75222 2.09917 2.80741 2.14565 2.8539L5.64565 6.3519C3.91223 7.53423 2.70546 9.3433 2.27965 11.3979C2.26626 11.4622 2.26566 11.5285 2.27788 11.593C2.29011 11.6575 2.31492 11.719 2.3509 11.7739C2.38688 11.8288 2.43333 11.8761 2.4876 11.9131C2.54186 11.9501 2.60287 11.976 2.66716 11.9894C2.73144 12.0028 2.79773 12.0034 2.86224 11.9912C2.92676 11.9789 2.98823 11.9541 3.04316 11.9182C3.09808 11.8822 3.14539 11.8357 3.18236 11.7815C3.21934 11.7272 3.24526 11.6662 3.25866 11.6019C3.44954 10.6784 3.82275 9.80224 4.35642 9.02474C4.89009 8.24724 5.5735 7.58402 6.36666 7.0739L7.94965 8.6559C7.53708 8.95183 7.19383 9.33398 6.94372 9.77583C6.69362 10.2177 6.54263 10.7087 6.50126 11.2147C6.45988 11.7207 6.5291 12.2297 6.7041 12.7063C6.87911 13.183 7.15572 13.6158 7.51474 13.9748C7.87376 14.3338 8.30659 14.6104 8.78321 14.7854C9.25982 14.9605 9.76881 15.0297 10.2748 14.9883C10.7809 14.9469 11.2719 14.7959 11.7137 14.5458C12.1556 14.2957 12.5377 13.9525 12.8337 13.5399L17.1467 17.8539C17.2405 17.9478 17.3679 18.0005 17.5007 18.0005C17.6334 18.0005 17.7608 17.9478 17.8547 17.8539C17.9485 17.76 18.0013 17.6327 18.0013 17.4999C18.0013 17.3671 17.9485 17.2398 17.8547 17.1459L2.85366 2.1459ZM10.1237 8.0029L13.4867 11.3659C13.4528 10.4848 13.0876 9.64894 12.4641 9.02544C11.8406 8.40195 11.0048 8.03676 10.1237 8.0029ZM7.52966 5.4099L8.33265 6.2129C8.87704 6.0715 9.4372 5.99992 9.99965 5.9999C13.2057 5.9999 16.0567 8.3269 16.7397 11.6019C16.7667 11.7319 16.8443 11.8457 16.9553 11.9185C17.0663 11.9913 17.2017 12.017 17.3317 11.9899C17.4616 11.9628 17.5755 11.8853 17.6483 11.7743C17.721 11.6632 17.7467 11.5279 17.7197 11.3979C16.9427 7.6729 13.6927 4.9999 9.99965 4.9999C9.14465 4.9999 8.31166 5.1429 7.52966 5.4099Z" fill="#B5B5B5"/>
</svg>
